<svg id="Layer_1" data-name="Layer 1" xmlns="http://www.w3.org/2000/svg" viewBox="0 0 262.18 117.18"><path d="M39.21,39.37V50.23L29.08,56.41l10.08,6.18.05,10.79L17.55,60.9V51.82Z"/><path d="M64.59,68H52.79L51,73.33H39.39l13-35.4h12.8L78,73.33H66.34Zm-2.7-8.35-3.2-9.85-3.2,9.85Z"/><path d="M89.09,64.13h11.75v9.2H76.94v-8.7l10.75-10.3H77.09v-9.2h23.25v8.7Z"/><path d="M102.27,51.5a11.58,11.58,0,0,1,4.17-5,10.67,10.67,0,0,1,6-1.72,9.54,9.54,0,0,1,4.75,1.12,7.66,7.66,0,0,1,3,3.08V45.13h11.05v28.2H120.19V69.48a7.64,7.64,0,0,1-3,3.07,9.54,9.54,0,0,1-4.75,1.13,10.68,10.68,0,0,1-6-1.73,11.53,11.53,0,0,1-4.17-5,18.05,18.05,0,0,1-1.53-7.72A18.13,18.13,0,0,1,102.27,51.5ZM119,55.73a4.11,4.11,0,0,0-5.9,0,5,5,0,0,0-1.15,3.5,5,5,0,0,0,1.15,3.5,4.11,4.11,0,0,0,5.9,0,5,5,0,0,0,1.15-3.5A5,5,0,0,0,119,55.73Z"/><path d="M149.39,46.4a9.76,9.76,0,0,1,5.1-1.47V56.78h-3.15a7.78,7.78,0,0,0-4.62,1.1c-1,.73-1.48,2-1.48,3.9V73.33h-11.1V45.13h11.1v5.2A13.73,13.73,0,0,1,149.39,46.4Z"/><path d="M155.42,51.5a11.58,11.58,0,0,1,4.17-5,10.67,10.67,0,0,1,5.95-1.72,9.54,9.54,0,0,1,4.75,1.12A7.66,7.66,0,0,1,173.34,49V45.13h11v28.2h-11V69.48a7.64,7.64,0,0,1-3.05,3.07,9.54,9.54,0,0,1-4.75,1.13A10.68,10.68,0,0,1,159.59,72a11.53,11.53,0,0,1-4.17-5,18.05,18.05,0,0,1-1.53-7.72A18.13,18.13,0,0,1,155.42,51.5Zm16.77,4.23a4.11,4.11,0,0,0-5.9,0,5,5,0,0,0-1.15,3.5,5,5,0,0,0,1.15,3.5,4.11,4.11,0,0,0,5.9,0,5,5,0,0,0,1.15-3.5A5,5,0,0,0,172.19,55.73Z"/><path d="M215.29,31.23h10l-16.5,47.1h-10Z"/><path d="M223,73.38V62.51l10.13-6.17L223,50.16,223,39.37l21.68,12.48v9.08Z"/></svg>